<svg width="211" height="45" viewBox="0 0 211 45" fill="none" xmlns="http://www.w3.org/2000/svg">
<path fill-rule="evenodd" clip-rule="evenodd" d="M22.5 45C34.9264 45 45 34.9264 45 22.5C45 22.322 44.9979 22.1445 44.9938 21.9675C46.0752 22.3133 47.2278 22.5 48.4239 22.5C54.6371 22.5 59.6739 17.4632 59.6739 11.25C59.6739 5.0368 54.6371 0 48.4239 0C43.9335 0 40.0576 2.63081 38.2534 6.43517C34.1947 2.45461 28.634 0 22.5 0C10.0736 0 0 10.0736 0 22.5C0 34.9264 10.0736 45 22.5 45ZM37.174 11.25C37.174 9.52717 37.5612 7.89479 38.2534 6.43517C42.2992 10.403 44.8526 15.887 44.9938 21.9675C40.4581 20.517 37.174 16.267 37.174 11.25ZM87.864 45H93.304C94.2 45 94.648 44.552 94.648 43.656V24.264C94.648 21.0213 96.12 19.4 99.064 19.4H101.368C102.733 19.4 103.693 19.6987 104.248 20.296C104.845 20.8507 105.144 21.8107 105.144 23.176V43.656C105.144 44.552 105.592 45 106.488 45H111.864C112.803 45 113.272 44.552 113.272 43.656V22.792C113.272 15.8373 109.923 12.36 103.224 12.36H101.176C97.9333 12.36 95.8427 13.512 94.904 15.816H94.648V1.35199C94.648 0.455994 94.2 0.00799561 93.304 0.00799561H87.864C86.968 0.00799561 86.52 0.455994 86.52 1.35199V43.656C86.52 44.552 86.968 45 87.864 45ZM129.94 45H131.476C132.799 45 134.057 44.7227 135.252 44.168C136.447 43.5707 137.279 42.696 137.748 41.544H138.004V43.656C138.004 44.552 138.452 45 139.348 45H144.724C145.663 45 146.132 44.552 146.132 43.656V13.704C146.132 12.808 145.663 12.36 144.724 12.36H129.94C126.569 12.36 123.967 13.256 122.132 15.048C120.297 16.84 119.38 19.4213 119.38 22.792V34.568C119.38 37.9387 120.297 40.52 122.132 42.312C123.967 44.104 126.569 45 129.94 45ZM138.004 20.104V33.096C138.004 36.3387 136.532 37.96 133.588 37.96H131.22C129.855 37.96 128.895 37.6827 128.34 37.128C127.785 36.5307 127.508 35.5493 127.508 34.184V23.176C127.508 21.8107 127.785 20.8507 128.34 20.296C128.895 19.6987 129.855 19.4 131.22 19.4H137.236C137.748 19.4 138.004 19.6347 138.004 20.104ZM163.065 45H164.601C165.924 45 167.182 44.7227 168.377 44.168C169.572 43.5707 170.404 42.696 170.873 41.544H171.129V43.656C171.129 44.552 171.577 45 172.473 45H177.849C178.788 45 179.257 44.552 179.257 43.656V13.704C179.257 12.808 178.788 12.36 177.849 12.36H163.065C159.694 12.36 157.092 13.256 155.257 15.048C153.422 16.84 152.505 19.4213 152.505 22.792V34.568C152.505 37.9387 153.422 40.52 155.257 42.312C157.092 44.104 159.694 45 163.065 45ZM171.129 20.104V33.096C171.129 36.3387 169.657 37.96 166.713 37.96H164.345C162.98 37.96 162.02 37.6827 161.465 37.128C160.91 36.5307 160.633 35.5493 160.633 34.184V23.176C160.633 21.8107 160.91 20.8507 161.465 20.296C162.02 19.6987 162.98 19.4 164.345 19.4H170.361C170.873 19.4 171.129 19.6347 171.129 20.104ZM210.016 41.544V43.656C210.016 44.552 209.568 45 208.672 45H186.528C185.632 45 185.184 44.552 185.184 43.656V39.432C185.184 38.4933 185.632 38.024 186.528 38.024H199.456V37.768L186.912 20.872C186.229 20.0187 185.888 18.9093 185.888 17.544V13.704C185.888 12.808 186.336 12.36 187.232 12.36H208.096C208.992 12.36 209.44 12.808 209.44 13.704V17.928C209.44 18.8667 208.992 19.336 208.096 19.336H195.232V19.592L208.8 37.832C209.611 38.856 210.016 40.0933 210.016 41.544Z" fill="white"/>
</svg>
